<mxfile host="app.diagrams.net" modified="2022-01-30T09:38:26.519Z" agent="5.0 (Windows NT 10.0; Win64; x64) AppleWebKit/537.36 (KHTML, like Gecko) Chrome/97.0.4692.99 Safari/537.36" etag="hJKVZFlgU6xxSG4QCj_n" version="16.5.2" type="github">
  <diagram id="Apfx0ilZ2bGBooMRrGMX" name="Page-1">
    <mxGraphModel dx="782" dy="468" grid="1" gridSize="10" guides="1" tooltips="1" connect="1" arrows="1" fold="1" page="1" pageScale="1" pageWidth="850" pageHeight="1100" math="0" shadow="0">
      <root>
        <mxCell id="0" />
        <mxCell id="1" parent="0" />
        <mxCell id="sYKmNAtpjcv3KEtINNRX-30" style="edgeStyle=orthogonalEdgeStyle;rounded=0;orthogonalLoop=1;jettySize=auto;html=1;fontColor=#000000;" edge="1" parent="1" source="sYKmNAtpjcv3KEtINNRX-1" target="sYKmNAtpjcv3KEtINNRX-27">
          <mxGeometry relative="1" as="geometry" />
        </mxCell>
        <mxCell id="sYKmNAtpjcv3KEtINNRX-33" style="edgeStyle=orthogonalEdgeStyle;rounded=0;orthogonalLoop=1;jettySize=auto;html=1;entryX=0.154;entryY=0.667;entryDx=0;entryDy=0;entryPerimeter=0;fontColor=#990000;" edge="1" parent="1" source="sYKmNAtpjcv3KEtINNRX-1" target="sYKmNAtpjcv3KEtINNRX-12">
          <mxGeometry relative="1" as="geometry">
            <Array as="points">
              <mxPoint x="230" y="160" />
              <mxPoint x="230" y="100" />
            </Array>
          </mxGeometry>
        </mxCell>
        <mxCell id="sYKmNAtpjcv3KEtINNRX-34" value="&lt;font color=&quot;#000000&quot;&gt;Get Tested&lt;/font&gt;" style="edgeLabel;html=1;align=center;verticalAlign=middle;resizable=0;points=[];fontColor=#990000;" vertex="1" connectable="0" parent="sYKmNAtpjcv3KEtINNRX-33">
          <mxGeometry x="0.3858" y="4" relative="1" as="geometry">
            <mxPoint x="4" y="-1" as="offset" />
          </mxGeometry>
        </mxCell>
        <mxCell id="sYKmNAtpjcv3KEtINNRX-1" value="Person A" style="shape=umlActor;verticalLabelPosition=bottom;verticalAlign=top;html=1;outlineConnect=0;rotation=0;" vertex="1" parent="1">
          <mxGeometry x="150" y="130" width="30" height="60" as="geometry" />
        </mxCell>
        <mxCell id="sYKmNAtpjcv3KEtINNRX-32" style="edgeStyle=orthogonalEdgeStyle;rounded=0;orthogonalLoop=1;jettySize=auto;html=1;fontColor=#000000;" edge="1" parent="1" source="sYKmNAtpjcv3KEtINNRX-5">
          <mxGeometry relative="1" as="geometry">
            <mxPoint x="110" y="390" as="targetPoint" />
          </mxGeometry>
        </mxCell>
        <mxCell id="sYKmNAtpjcv3KEtINNRX-5" value="Person C" style="shape=umlActor;verticalLabelPosition=bottom;verticalAlign=top;html=1;outlineConnect=0;" vertex="1" parent="1">
          <mxGeometry x="150" y="310" width="30" height="60" as="geometry" />
        </mxCell>
        <mxCell id="sYKmNAtpjcv3KEtINNRX-31" style="edgeStyle=orthogonalEdgeStyle;rounded=0;orthogonalLoop=1;jettySize=auto;html=1;fontColor=#000000;" edge="1" parent="1" source="sYKmNAtpjcv3KEtINNRX-6">
          <mxGeometry relative="1" as="geometry">
            <mxPoint x="20" y="300" as="targetPoint" />
          </mxGeometry>
        </mxCell>
        <mxCell id="sYKmNAtpjcv3KEtINNRX-6" value="Person B" style="shape=umlActor;verticalLabelPosition=bottom;verticalAlign=top;html=1;outlineConnect=0;" vertex="1" parent="1">
          <mxGeometry x="60" y="220" width="30" height="60" as="geometry" />
        </mxCell>
        <mxCell id="sYKmNAtpjcv3KEtINNRX-41" style="edgeStyle=orthogonalEdgeStyle;rounded=0;orthogonalLoop=1;jettySize=auto;html=1;exitX=1;exitY=0.5;exitDx=0;exitDy=0;exitPerimeter=0;entryX=0;entryY=0.5;entryDx=0;entryDy=0;entryPerimeter=0;fontColor=#000000;" edge="1" parent="1" source="sYKmNAtpjcv3KEtINNRX-8" target="sYKmNAtpjcv3KEtINNRX-13">
          <mxGeometry relative="1" as="geometry" />
        </mxCell>
        <mxCell id="sYKmNAtpjcv3KEtINNRX-8" value="Block #189" style="shape=cylinder3;whiteSpace=wrap;html=1;boundedLbl=1;backgroundOutline=1;size=15;" vertex="1" parent="1">
          <mxGeometry x="260" y="310" width="60" height="80" as="geometry" />
        </mxCell>
        <mxCell id="sYKmNAtpjcv3KEtINNRX-10" value="Server" style="rounded=0;whiteSpace=wrap;html=1;" vertex="1" parent="1">
          <mxGeometry x="250" y="200" width="100" height="50" as="geometry" />
        </mxCell>
        <mxCell id="sYKmNAtpjcv3KEtINNRX-35" style="edgeStyle=orthogonalEdgeStyle;rounded=0;orthogonalLoop=1;jettySize=auto;html=1;fontColor=#000000;" edge="1" parent="1" source="sYKmNAtpjcv3KEtINNRX-12">
          <mxGeometry relative="1" as="geometry">
            <mxPoint x="490" y="85" as="targetPoint" />
          </mxGeometry>
        </mxCell>
        <mxCell id="sYKmNAtpjcv3KEtINNRX-12" value="Testing Lab or authorized entity" style="rhombus;whiteSpace=wrap;html=1;" vertex="1" parent="1">
          <mxGeometry x="310" y="40" width="130" height="90" as="geometry" />
        </mxCell>
        <mxCell id="sYKmNAtpjcv3KEtINNRX-42" style="edgeStyle=orthogonalEdgeStyle;rounded=0;orthogonalLoop=1;jettySize=auto;html=1;fontColor=#000000;" edge="1" parent="1" source="sYKmNAtpjcv3KEtINNRX-13">
          <mxGeometry relative="1" as="geometry">
            <mxPoint x="430" y="350" as="targetPoint" />
          </mxGeometry>
        </mxCell>
        <mxCell id="sYKmNAtpjcv3KEtINNRX-13" value="Block #190" style="shape=cylinder3;whiteSpace=wrap;html=1;boundedLbl=1;backgroundOutline=1;size=15;" vertex="1" parent="1">
          <mxGeometry x="345" y="310" width="60" height="80" as="geometry" />
        </mxCell>
        <mxCell id="sYKmNAtpjcv3KEtINNRX-14" value="Block #191" style="shape=cylinder3;whiteSpace=wrap;html=1;boundedLbl=1;backgroundOutline=1;size=15;" vertex="1" parent="1">
          <mxGeometry x="430" y="310" width="60" height="80" as="geometry" />
        </mxCell>
        <mxCell id="sYKmNAtpjcv3KEtINNRX-16" value="&lt;b&gt;&lt;font color=&quot;#ff00ff&quot;&gt;175804&lt;/font&gt;&lt;/b&gt;" style="text;html=1;strokeColor=none;fillColor=none;align=center;verticalAlign=middle;whiteSpace=wrap;rounded=0;" vertex="1" parent="1">
          <mxGeometry x="135" y="100" width="60" height="30" as="geometry" />
        </mxCell>
        <mxCell id="sYKmNAtpjcv3KEtINNRX-17" value="&lt;b&gt;&lt;font color=&quot;#cc6600&quot;&gt;928304&lt;/font&gt;&lt;/b&gt;" style="text;html=1;strokeColor=none;fillColor=none;align=center;verticalAlign=middle;whiteSpace=wrap;rounded=0;" vertex="1" parent="1">
          <mxGeometry x="135" y="280" width="60" height="30" as="geometry" />
        </mxCell>
        <mxCell id="sYKmNAtpjcv3KEtINNRX-18" value="&lt;b&gt;&lt;font color=&quot;#0000ff&quot;&gt;678493&lt;/font&gt;&lt;/b&gt;" style="text;html=1;strokeColor=none;fillColor=none;align=center;verticalAlign=middle;whiteSpace=wrap;rounded=0;" vertex="1" parent="1">
          <mxGeometry x="45" y="190" width="60" height="30" as="geometry" />
        </mxCell>
        <mxCell id="sYKmNAtpjcv3KEtINNRX-19" value="" style="endArrow=classic;startArrow=classic;html=1;rounded=0;" edge="1" parent="1">
          <mxGeometry width="50" height="50" relative="1" as="geometry">
            <mxPoint x="110" y="250" as="sourcePoint" />
            <mxPoint x="140" y="220" as="targetPoint" />
            <Array as="points">
              <mxPoint x="120" y="240" />
            </Array>
          </mxGeometry>
        </mxCell>
        <mxCell id="sYKmNAtpjcv3KEtINNRX-20" value="" style="endArrow=classic;startArrow=classic;html=1;rounded=0;" edge="1" parent="1" source="sYKmNAtpjcv3KEtINNRX-17">
          <mxGeometry width="50" height="50" relative="1" as="geometry">
            <mxPoint x="164.5" y="280" as="sourcePoint" />
            <mxPoint x="165" y="220" as="targetPoint" />
          </mxGeometry>
        </mxCell>
        <mxCell id="sYKmNAtpjcv3KEtINNRX-21" value="" style="endArrow=classic;startArrow=classic;html=1;rounded=0;" edge="1" parent="1">
          <mxGeometry width="50" height="50" relative="1" as="geometry">
            <mxPoint x="110" y="260" as="sourcePoint" />
            <mxPoint x="140" y="295" as="targetPoint" />
          </mxGeometry>
        </mxCell>
        <mxCell id="sYKmNAtpjcv3KEtINNRX-22" value="&lt;font color=&quot;#990000&quot;&gt;&lt;b&gt;INFECTED&lt;/b&gt;&lt;/font&gt;" style="text;html=1;strokeColor=none;fillColor=none;align=center;verticalAlign=middle;whiteSpace=wrap;rounded=0;fontColor=#000000;" vertex="1" parent="1">
          <mxGeometry x="135" y="80" width="60" height="30" as="geometry" />
        </mxCell>
        <mxCell id="sYKmNAtpjcv3KEtINNRX-25" value="&lt;b&gt;&lt;font color=&quot;#ff00ff&quot;&gt;175804&lt;br&gt;&lt;/font&gt;&lt;/b&gt;&lt;b&gt;&lt;font color=&quot;#cc6600&quot;&gt;928304&lt;/font&gt;&lt;/b&gt;&lt;b&gt;&lt;font color=&quot;#ff00ff&quot;&gt;&lt;br&gt;&lt;/font&gt;&lt;/b&gt;" style="rounded=1;whiteSpace=wrap;html=1;fontColor=#000000;arcSize=0;" vertex="1" parent="1">
          <mxGeometry x="10" y="300" width="50" height="40" as="geometry" />
        </mxCell>
        <mxCell id="sYKmNAtpjcv3KEtINNRX-26" value="&lt;b&gt;&lt;font color=&quot;#0000ff&quot;&gt;678493&lt;br&gt;&lt;/font&gt;&lt;/b&gt;&lt;b&gt;&lt;font color=&quot;#ff00ff&quot;&gt;175804&lt;/font&gt;&lt;/b&gt;&lt;b&gt;&lt;font color=&quot;#0000ff&quot;&gt;&lt;br&gt;&lt;/font&gt;&lt;/b&gt;" style="rounded=1;whiteSpace=wrap;html=1;fontColor=#000000;" vertex="1" parent="1">
          <mxGeometry x="90" y="390" width="50" height="40" as="geometry" />
        </mxCell>
        <mxCell id="sYKmNAtpjcv3KEtINNRX-27" value="&lt;b&gt;&lt;font color=&quot;#cc6600&quot;&gt;928304&lt;br&gt;&lt;/font&gt;&lt;/b&gt;&lt;b&gt;&lt;font color=&quot;#0000ff&quot;&gt;678493&lt;/font&gt;&lt;/b&gt;&lt;b&gt;&lt;font color=&quot;#cc6600&quot;&gt;&lt;br&gt;&lt;/font&gt;&lt;/b&gt;" style="rounded=1;whiteSpace=wrap;html=1;fontColor=#000000;" vertex="1" parent="1">
          <mxGeometry x="60" y="60" width="50" height="50" as="geometry" />
        </mxCell>
        <mxCell id="sYKmNAtpjcv3KEtINNRX-38" style="edgeStyle=orthogonalEdgeStyle;rounded=0;orthogonalLoop=1;jettySize=auto;html=1;fontColor=#000000;" edge="1" parent="1" source="sYKmNAtpjcv3KEtINNRX-37">
          <mxGeometry relative="1" as="geometry">
            <mxPoint x="360" y="300" as="targetPoint" />
            <Array as="points">
              <mxPoint x="460" y="85" />
              <mxPoint x="460" y="290" />
            </Array>
          </mxGeometry>
        </mxCell>
        <mxCell id="sYKmNAtpjcv3KEtINNRX-39" value="Update blockchain with detailes of infection" style="edgeLabel;html=1;align=center;verticalAlign=middle;resizable=0;points=[];fontColor=#000000;" vertex="1" connectable="0" parent="sYKmNAtpjcv3KEtINNRX-38">
          <mxGeometry x="-0.3623" y="3" relative="1" as="geometry">
            <mxPoint as="offset" />
          </mxGeometry>
        </mxCell>
        <mxCell id="sYKmNAtpjcv3KEtINNRX-37" value="Result: Test Positive" style="whiteSpace=wrap;html=1;fontColor=#000000;" vertex="1" parent="1">
          <mxGeometry x="490" y="60" width="50" height="50" as="geometry" />
        </mxCell>
        <mxCell id="sYKmNAtpjcv3KEtINNRX-45" value="" style="endArrow=classic;html=1;rounded=0;fontColor=#000000;exitX=0.25;exitY=1;exitDx=0;exitDy=0;" edge="1" parent="1" source="sYKmNAtpjcv3KEtINNRX-10">
          <mxGeometry width="50" height="50" relative="1" as="geometry">
            <mxPoint x="265" y="300" as="sourcePoint" />
            <mxPoint x="330" y="310" as="targetPoint" />
          </mxGeometry>
        </mxCell>
        <mxCell id="sYKmNAtpjcv3KEtINNRX-46" value="" style="endArrow=classic;html=1;rounded=0;fontColor=#000000;entryX=0.5;entryY=1;entryDx=0;entryDy=0;" edge="1" parent="1" target="sYKmNAtpjcv3KEtINNRX-10">
          <mxGeometry width="50" height="50" relative="1" as="geometry">
            <mxPoint x="350" y="300" as="sourcePoint" />
            <mxPoint x="380" y="260" as="targetPoint" />
          </mxGeometry>
        </mxCell>
        <mxCell id="sYKmNAtpjcv3KEtINNRX-47" value="" style="endArrow=classic;html=1;rounded=0;fontColor=#000000;exitX=0;exitY=0.75;exitDx=0;exitDy=0;" edge="1" parent="1" source="sYKmNAtpjcv3KEtINNRX-10" target="sYKmNAtpjcv3KEtINNRX-5">
          <mxGeometry width="50" height="50" relative="1" as="geometry">
            <mxPoint x="330" y="310" as="sourcePoint" />
            <mxPoint x="190" y="340" as="targetPoint" />
          </mxGeometry>
        </mxCell>
        <mxCell id="sYKmNAtpjcv3KEtINNRX-52" value="Inform" style="edgeLabel;html=1;align=center;verticalAlign=middle;resizable=0;points=[];fontColor=#000000;" vertex="1" connectable="0" parent="sYKmNAtpjcv3KEtINNRX-47">
          <mxGeometry x="-0.2303" y="-3" relative="1" as="geometry">
            <mxPoint as="offset" />
          </mxGeometry>
        </mxCell>
        <mxCell id="sYKmNAtpjcv3KEtINNRX-49" value="" style="endArrow=classic;html=1;rounded=0;fontColor=#000000;exitX=0;exitY=0.5;exitDx=0;exitDy=0;" edge="1" parent="1" source="sYKmNAtpjcv3KEtINNRX-10" target="sYKmNAtpjcv3KEtINNRX-6">
          <mxGeometry width="50" height="50" relative="1" as="geometry">
            <mxPoint x="200" y="260" as="sourcePoint" />
            <mxPoint x="250" y="210" as="targetPoint" />
          </mxGeometry>
        </mxCell>
        <mxCell id="sYKmNAtpjcv3KEtINNRX-51" value="Inform" style="edgeLabel;html=1;align=center;verticalAlign=middle;resizable=0;points=[];fontColor=#000000;" vertex="1" connectable="0" parent="sYKmNAtpjcv3KEtINNRX-49">
          <mxGeometry x="-0.4079" relative="1" as="geometry">
            <mxPoint as="offset" />
          </mxGeometry>
        </mxCell>
      </root>
    </mxGraphModel>
  </diagram>
</mxfile>
